<?xml version="1.0" encoding="utf-8" standalone="no"?>
<!DOCTYPE svg PUBLIC "-//W3C//DTD SVG 1.1//EN"
  "http://www.w3.org/Graphics/SVG/1.1/DTD/svg11.dtd">
<!-- Created with matplotlib (https://matplotlib.org/) -->
<svg height="302.227687pt" version="1.1" viewBox="0 0 396.979062 302.227687" width="396.979062pt" xmlns="http://www.w3.org/2000/svg" xmlns:xlink="http://www.w3.org/1999/xlink">
 <defs>
  <style type="text/css">
*{stroke-linecap:butt;stroke-linejoin:round;white-space:pre;}
  </style>
 </defs>
 <g id="figure_1">
  <g id="patch_1">
   <path d="M 0 302.227687 
L 396.979062 302.227687 
L 396.979062 0 
L 0 0 
z
" style="fill:#ffffff;"/>
  </g>
  <g id="axes_1">
   <g id="patch_2">
    <path d="M 54.979063 253.1955 
L 389.779063 253.1955 
L 389.779063 35.7555 
L 54.979063 35.7555 
z
" style="fill:#ffffff;"/>
   </g>
   <g id="patch_3">
    <path clip-path="url(#p46560ced18)" d="M 63.349063 203.7279 
L 130.309063 203.7279 
L 130.309063 199.683741 
L 113.569063 196.1175 
L 130.309063 192.551259 
L 130.309063 185.6985 
L 63.349063 185.6985 
L 63.349063 192.551259 
L 80.089063 196.1175 
L 63.349063 199.683741 
L 63.349063 203.7279 
z
" style="fill:#3274a1;stroke:#3d3d3d;stroke-linejoin:miter;stroke-width:1.5;"/>
   </g>
   <g id="patch_4">
    <path clip-path="url(#p46560ced18)" d="M 147.049062 171.1572 
L 214.009062 171.1572 
L 214.009062 182.600219 
L 197.269063 161.7801 
L 214.009062 140.959981 
L 214.009062 152.403 
L 147.049062 152.403 
L 147.049062 140.959981 
L 163.789062 161.7801 
L 147.049062 182.600219 
L 147.049062 171.1572 
z
" style="fill:#e1812c;stroke:#3d3d3d;stroke-linejoin:miter;stroke-width:1.5;"/>
   </g>
   <g id="patch_5">
    <path clip-path="url(#p46560ced18)" d="M 230.749063 197.2047 
L 297.709063 197.2047 
L 297.709063 196.176218 
L 280.969063 185.4267 
L 297.709063 174.677182 
L 297.709063 158.4732 
L 230.749063 158.4732 
L 230.749063 174.677182 
L 247.489062 185.4267 
L 230.749063 196.176218 
L 230.749063 197.2047 
z
" style="fill:#3a923a;stroke:#3d3d3d;stroke-linejoin:miter;stroke-width:1.5;"/>
   </g>
   <g id="patch_6">
    <path clip-path="url(#p46560ced18)" d="M 314.449063 192.5388 
L 381.409063 192.5388 
L 381.409063 200.154448 
L 364.669063 185.6079 
L 381.409063 171.061352 
L 381.409063 169.8435 
L 314.449063 169.8435 
L 314.449063 171.061352 
L 331.189062 185.6079 
L 314.449063 200.154448 
L 314.449063 192.5388 
z
" style="fill:#c03d3e;stroke:#3d3d3d;stroke-linejoin:miter;stroke-width:1.5;"/>
   </g>
   <g id="matplotlib.axis_1">
    <g id="xtick_1">
     <g id="line2d_1">
      <defs>
       <path d="M 0 0 
L 0 3.5 
" id="m6f76d94fcc" style="stroke:#000000;stroke-width:0.8;"/>
      </defs>
      <g>
       <use style="stroke:#000000;stroke-width:0.8;" x="96.829063" xlink:href="#m6f76d94fcc" y="253.1955"/>
      </g>
     </g>
     <g id="text_1">
      <!-- conserved -->
      <defs>
       <path d="M 48.78125 52.59375 
L 48.78125 44.1875 
Q 44.96875 46.296875 41.140625 47.34375 
Q 37.3125 48.390625 33.40625 48.390625 
Q 24.65625 48.390625 19.8125 42.84375 
Q 14.984375 37.3125 14.984375 27.296875 
Q 14.984375 17.28125 19.8125 11.734375 
Q 24.65625 6.203125 33.40625 6.203125 
Q 37.3125 6.203125 41.140625 7.25 
Q 44.96875 8.296875 48.78125 10.40625 
L 48.78125 2.09375 
Q 45.015625 0.34375 40.984375 -0.53125 
Q 36.96875 -1.421875 32.421875 -1.421875 
Q 20.0625 -1.421875 12.78125 6.34375 
Q 5.515625 14.109375 5.515625 27.296875 
Q 5.515625 40.671875 12.859375 48.328125 
Q 20.21875 56 33.015625 56 
Q 37.15625 56 41.109375 55.140625 
Q 45.0625 54.296875 48.78125 52.59375 
z
" id="DejaVuSans-99"/>
       <path d="M 30.609375 48.390625 
Q 23.390625 48.390625 19.1875 42.75 
Q 14.984375 37.109375 14.984375 27.296875 
Q 14.984375 17.484375 19.15625 11.84375 
Q 23.34375 6.203125 30.609375 6.203125 
Q 37.796875 6.203125 41.984375 11.859375 
Q 46.1875 17.53125 46.1875 27.296875 
Q 46.1875 37.015625 41.984375 42.703125 
Q 37.796875 48.390625 30.609375 48.390625 
z
M 30.609375 56 
Q 42.328125 56 49.015625 48.375 
Q 55.71875 40.765625 55.71875 27.296875 
Q 55.71875 13.875 49.015625 6.21875 
Q 42.328125 -1.421875 30.609375 -1.421875 
Q 18.84375 -1.421875 12.171875 6.21875 
Q 5.515625 13.875 5.515625 27.296875 
Q 5.515625 40.765625 12.171875 48.375 
Q 18.84375 56 30.609375 56 
z
" id="DejaVuSans-111"/>
       <path d="M 54.890625 33.015625 
L 54.890625 0 
L 45.90625 0 
L 45.90625 32.71875 
Q 45.90625 40.484375 42.875 44.328125 
Q 39.84375 48.1875 33.796875 48.1875 
Q 26.515625 48.1875 22.3125 43.546875 
Q 18.109375 38.921875 18.109375 30.90625 
L 18.109375 0 
L 9.078125 0 
L 9.078125 54.6875 
L 18.109375 54.6875 
L 18.109375 46.1875 
Q 21.34375 51.125 25.703125 53.5625 
Q 30.078125 56 35.796875 56 
Q 45.21875 56 50.046875 50.171875 
Q 54.890625 44.34375 54.890625 33.015625 
z
" id="DejaVuSans-110"/>
       <path d="M 44.28125 53.078125 
L 44.28125 44.578125 
Q 40.484375 46.53125 36.375 47.5 
Q 32.28125 48.484375 27.875 48.484375 
Q 21.1875 48.484375 17.84375 46.4375 
Q 14.5 44.390625 14.5 40.28125 
Q 14.5 37.15625 16.890625 35.375 
Q 19.28125 33.59375 26.515625 31.984375 
L 29.59375 31.296875 
Q 39.15625 29.25 43.1875 25.515625 
Q 47.21875 21.78125 47.21875 15.09375 
Q 47.21875 7.46875 41.1875 3.015625 
Q 35.15625 -1.421875 24.609375 -1.421875 
Q 20.21875 -1.421875 15.453125 -0.5625 
Q 10.6875 0.296875 5.421875 2 
L 5.421875 11.28125 
Q 10.40625 8.6875 15.234375 7.390625 
Q 20.0625 6.109375 24.8125 6.109375 
Q 31.15625 6.109375 34.5625 8.28125 
Q 37.984375 10.453125 37.984375 14.40625 
Q 37.984375 18.0625 35.515625 20.015625 
Q 33.0625 21.96875 24.703125 23.78125 
L 21.578125 24.515625 
Q 13.234375 26.265625 9.515625 29.90625 
Q 5.8125 33.546875 5.8125 39.890625 
Q 5.8125 47.609375 11.28125 51.796875 
Q 16.75 56 26.8125 56 
Q 31.78125 56 36.171875 55.265625 
Q 40.578125 54.546875 44.28125 53.078125 
z
" id="DejaVuSans-115"/>
       <path d="M 56.203125 29.59375 
L 56.203125 25.203125 
L 14.890625 25.203125 
Q 15.484375 15.921875 20.484375 11.0625 
Q 25.484375 6.203125 34.421875 6.203125 
Q 39.59375 6.203125 44.453125 7.46875 
Q 49.3125 8.734375 54.109375 11.28125 
L 54.109375 2.78125 
Q 49.265625 0.734375 44.1875 -0.34375 
Q 39.109375 -1.421875 33.890625 -1.421875 
Q 20.796875 -1.421875 13.15625 6.1875 
Q 5.515625 13.8125 5.515625 26.8125 
Q 5.515625 40.234375 12.765625 48.109375 
Q 20.015625 56 32.328125 56 
Q 43.359375 56 49.78125 48.890625 
Q 56.203125 41.796875 56.203125 29.59375 
z
M 47.21875 32.234375 
Q 47.125 39.59375 43.09375 43.984375 
Q 39.0625 48.390625 32.421875 48.390625 
Q 24.90625 48.390625 20.390625 44.140625 
Q 15.875 39.890625 15.1875 32.171875 
z
" id="DejaVuSans-101"/>
       <path d="M 41.109375 46.296875 
Q 39.59375 47.171875 37.8125 47.578125 
Q 36.03125 48 33.890625 48 
Q 26.265625 48 22.1875 43.046875 
Q 18.109375 38.09375 18.109375 28.8125 
L 18.109375 0 
L 9.078125 0 
L 9.078125 54.6875 
L 18.109375 54.6875 
L 18.109375 46.1875 
Q 20.953125 51.171875 25.484375 53.578125 
Q 30.03125 56 36.53125 56 
Q 37.453125 56 38.578125 55.875 
Q 39.703125 55.765625 41.0625 55.515625 
z
" id="DejaVuSans-114"/>
       <path d="M 2.984375 54.6875 
L 12.5 54.6875 
L 29.59375 8.796875 
L 46.6875 54.6875 
L 56.203125 54.6875 
L 35.6875 0 
L 23.484375 0 
z
" id="DejaVuSans-118"/>
       <path d="M 45.40625 46.390625 
L 45.40625 75.984375 
L 54.390625 75.984375 
L 54.390625 0 
L 45.40625 0 
L 45.40625 8.203125 
Q 42.578125 3.328125 38.25 0.953125 
Q 33.9375 -1.421875 27.875 -1.421875 
Q 17.96875 -1.421875 11.734375 6.484375 
Q 5.515625 14.40625 5.515625 27.296875 
Q 5.515625 40.1875 11.734375 48.09375 
Q 17.96875 56 27.875 56 
Q 33.9375 56 38.25 53.625 
Q 42.578125 51.265625 45.40625 46.390625 
z
M 14.796875 27.296875 
Q 14.796875 17.390625 18.875 11.75 
Q 22.953125 6.109375 30.078125 6.109375 
Q 37.203125 6.109375 41.296875 11.75 
Q 45.40625 17.390625 45.40625 27.296875 
Q 45.40625 37.203125 41.296875 42.84375 
Q 37.203125 48.484375 30.078125 48.484375 
Q 22.953125 48.484375 18.875 42.84375 
Q 14.796875 37.203125 14.796875 27.296875 
z
" id="DejaVuSans-100"/>
      </defs>
      <g transform="translate(70.904844 267.793937)scale(0.1 -0.1)">
       <use xlink:href="#DejaVuSans-99"/>
       <use x="54.980469" xlink:href="#DejaVuSans-111"/>
       <use x="116.162109" xlink:href="#DejaVuSans-110"/>
       <use x="179.541016" xlink:href="#DejaVuSans-115"/>
       <use x="231.640625" xlink:href="#DejaVuSans-101"/>
       <use x="293.164062" xlink:href="#DejaVuSans-114"/>
       <use x="334.277344" xlink:href="#DejaVuSans-118"/>
       <use x="393.457031" xlink:href="#DejaVuSans-101"/>
       <use x="454.980469" xlink:href="#DejaVuSans-100"/>
      </g>
     </g>
    </g>
    <g id="xtick_2">
     <g id="line2d_2">
      <g>
       <use style="stroke:#000000;stroke-width:0.8;" x="180.529063" xlink:href="#m6f76d94fcc" y="253.1955"/>
      </g>
     </g>
     <g id="text_2">
      <!-- moved_on -->
      <defs>
       <path d="M 52 44.1875 
Q 55.375 50.25 60.0625 53.125 
Q 64.75 56 71.09375 56 
Q 79.640625 56 84.28125 50.015625 
Q 88.921875 44.046875 88.921875 33.015625 
L 88.921875 0 
L 79.890625 0 
L 79.890625 32.71875 
Q 79.890625 40.578125 77.09375 44.375 
Q 74.3125 48.1875 68.609375 48.1875 
Q 61.625 48.1875 57.5625 43.546875 
Q 53.515625 38.921875 53.515625 30.90625 
L 53.515625 0 
L 44.484375 0 
L 44.484375 32.71875 
Q 44.484375 40.625 41.703125 44.40625 
Q 38.921875 48.1875 33.109375 48.1875 
Q 26.21875 48.1875 22.15625 43.53125 
Q 18.109375 38.875 18.109375 30.90625 
L 18.109375 0 
L 9.078125 0 
L 9.078125 54.6875 
L 18.109375 54.6875 
L 18.109375 46.1875 
Q 21.1875 51.21875 25.484375 53.609375 
Q 29.78125 56 35.6875 56 
Q 41.65625 56 45.828125 52.96875 
Q 50 49.953125 52 44.1875 
z
" id="DejaVuSans-109"/>
       <path d="M 50.984375 -16.609375 
L 50.984375 -23.578125 
L -0.984375 -23.578125 
L -0.984375 -16.609375 
z
" id="DejaVuSans-95"/>
      </defs>
      <g transform="translate(154.661094 267.793937)scale(0.1 -0.1)">
       <use xlink:href="#DejaVuSans-109"/>
       <use x="97.412109" xlink:href="#DejaVuSans-111"/>
       <use x="158.59375" xlink:href="#DejaVuSans-118"/>
       <use x="217.773438" xlink:href="#DejaVuSans-101"/>
       <use x="279.296875" xlink:href="#DejaVuSans-100"/>
       <use x="342.773438" xlink:href="#DejaVuSans-95"/>
       <use x="392.773438" xlink:href="#DejaVuSans-111"/>
       <use x="453.955078" xlink:href="#DejaVuSans-110"/>
      </g>
     </g>
    </g>
    <g id="xtick_3">
     <g id="line2d_3">
      <g>
       <use style="stroke:#000000;stroke-width:0.8;" x="264.229062" xlink:href="#m6f76d94fcc" y="253.1955"/>
      </g>
     </g>
     <g id="text_3">
      <!-- gene_death -->
      <defs>
       <path d="M 45.40625 27.984375 
Q 45.40625 37.75 41.375 43.109375 
Q 37.359375 48.484375 30.078125 48.484375 
Q 22.859375 48.484375 18.828125 43.109375 
Q 14.796875 37.75 14.796875 27.984375 
Q 14.796875 18.265625 18.828125 12.890625 
Q 22.859375 7.515625 30.078125 7.515625 
Q 37.359375 7.515625 41.375 12.890625 
Q 45.40625 18.265625 45.40625 27.984375 
z
M 54.390625 6.78125 
Q 54.390625 -7.171875 48.1875 -13.984375 
Q 42 -20.796875 29.203125 -20.796875 
Q 24.46875 -20.796875 20.265625 -20.09375 
Q 16.0625 -19.390625 12.109375 -17.921875 
L 12.109375 -9.1875 
Q 16.0625 -11.328125 19.921875 -12.34375 
Q 23.78125 -13.375 27.78125 -13.375 
Q 36.625 -13.375 41.015625 -8.765625 
Q 45.40625 -4.15625 45.40625 5.171875 
L 45.40625 9.625 
Q 42.625 4.78125 38.28125 2.390625 
Q 33.9375 0 27.875 0 
Q 17.828125 0 11.671875 7.65625 
Q 5.515625 15.328125 5.515625 27.984375 
Q 5.515625 40.671875 11.671875 48.328125 
Q 17.828125 56 27.875 56 
Q 33.9375 56 38.28125 53.609375 
Q 42.625 51.21875 45.40625 46.390625 
L 45.40625 54.6875 
L 54.390625 54.6875 
z
" id="DejaVuSans-103"/>
       <path d="M 34.28125 27.484375 
Q 23.390625 27.484375 19.1875 25 
Q 14.984375 22.515625 14.984375 16.5 
Q 14.984375 11.71875 18.140625 8.90625 
Q 21.296875 6.109375 26.703125 6.109375 
Q 34.1875 6.109375 38.703125 11.40625 
Q 43.21875 16.703125 43.21875 25.484375 
L 43.21875 27.484375 
z
M 52.203125 31.203125 
L 52.203125 0 
L 43.21875 0 
L 43.21875 8.296875 
Q 40.140625 3.328125 35.546875 0.953125 
Q 30.953125 -1.421875 24.3125 -1.421875 
Q 15.921875 -1.421875 10.953125 3.296875 
Q 6 8.015625 6 15.921875 
Q 6 25.140625 12.171875 29.828125 
Q 18.359375 34.515625 30.609375 34.515625 
L 43.21875 34.515625 
L 43.21875 35.40625 
Q 43.21875 41.609375 39.140625 45 
Q 35.0625 48.390625 27.6875 48.390625 
Q 23 48.390625 18.546875 47.265625 
Q 14.109375 46.140625 10.015625 43.890625 
L 10.015625 52.203125 
Q 14.9375 54.109375 19.578125 55.046875 
Q 24.21875 56 28.609375 56 
Q 40.484375 56 46.34375 49.84375 
Q 52.203125 43.703125 52.203125 31.203125 
z
" id="DejaVuSans-97"/>
       <path d="M 18.3125 70.21875 
L 18.3125 54.6875 
L 36.8125 54.6875 
L 36.8125 47.703125 
L 18.3125 47.703125 
L 18.3125 18.015625 
Q 18.3125 11.328125 20.140625 9.421875 
Q 21.96875 7.515625 27.59375 7.515625 
L 36.8125 7.515625 
L 36.8125 0 
L 27.59375 0 
Q 17.1875 0 13.234375 3.875 
Q 9.28125 7.765625 9.28125 18.015625 
L 9.28125 47.703125 
L 2.6875 47.703125 
L 2.6875 54.6875 
L 9.28125 54.6875 
L 9.28125 70.21875 
z
" id="DejaVuSans-116"/>
       <path d="M 54.890625 33.015625 
L 54.890625 0 
L 45.90625 0 
L 45.90625 32.71875 
Q 45.90625 40.484375 42.875 44.328125 
Q 39.84375 48.1875 33.796875 48.1875 
Q 26.515625 48.1875 22.3125 43.546875 
Q 18.109375 38.921875 18.109375 30.90625 
L 18.109375 0 
L 9.078125 0 
L 9.078125 75.984375 
L 18.109375 75.984375 
L 18.109375 46.1875 
Q 21.34375 51.125 25.703125 53.5625 
Q 30.078125 56 35.796875 56 
Q 45.21875 56 50.046875 50.171875 
Q 54.890625 44.34375 54.890625 33.015625 
z
" id="DejaVuSans-104"/>
      </defs>
      <g transform="translate(234.789219 267.793937)scale(0.1 -0.1)">
       <use xlink:href="#DejaVuSans-103"/>
       <use x="63.476562" xlink:href="#DejaVuSans-101"/>
       <use x="125" xlink:href="#DejaVuSans-110"/>
       <use x="188.378906" xlink:href="#DejaVuSans-101"/>
       <use x="249.902344" xlink:href="#DejaVuSans-95"/>
       <use x="299.902344" xlink:href="#DejaVuSans-100"/>
       <use x="363.378906" xlink:href="#DejaVuSans-101"/>
       <use x="424.902344" xlink:href="#DejaVuSans-97"/>
       <use x="486.181641" xlink:href="#DejaVuSans-116"/>
       <use x="525.390625" xlink:href="#DejaVuSans-104"/>
      </g>
     </g>
    </g>
    <g id="xtick_4">
     <g id="line2d_4">
      <g>
       <use style="stroke:#000000;stroke-width:0.8;" x="347.929063" xlink:href="#m6f76d94fcc" y="253.1955"/>
      </g>
     </g>
     <g id="text_4">
      <!-- moved_off -->
      <defs>
       <path d="M 37.109375 75.984375 
L 37.109375 68.5 
L 28.515625 68.5 
Q 23.6875 68.5 21.796875 66.546875 
Q 19.921875 64.59375 19.921875 59.515625 
L 19.921875 54.6875 
L 34.71875 54.6875 
L 34.71875 47.703125 
L 19.921875 47.703125 
L 19.921875 0 
L 10.890625 0 
L 10.890625 47.703125 
L 2.296875 47.703125 
L 2.296875 54.6875 
L 10.890625 54.6875 
L 10.890625 58.5 
Q 10.890625 67.625 15.140625 71.796875 
Q 19.390625 75.984375 28.609375 75.984375 
z
" id="DejaVuSans-102"/>
      </defs>
      <g transform="translate(321.709531 267.793937)scale(0.1 -0.1)">
       <use xlink:href="#DejaVuSans-109"/>
       <use x="97.412109" xlink:href="#DejaVuSans-111"/>
       <use x="158.59375" xlink:href="#DejaVuSans-118"/>
       <use x="217.773438" xlink:href="#DejaVuSans-101"/>
       <use x="279.296875" xlink:href="#DejaVuSans-100"/>
       <use x="342.773438" xlink:href="#DejaVuSans-95"/>
       <use x="392.773438" xlink:href="#DejaVuSans-111"/>
       <use x="453.955078" xlink:href="#DejaVuSans-102"/>
       <use x="489.160156" xlink:href="#DejaVuSans-102"/>
      </g>
     </g>
    </g>
    <g id="text_5">
     <!-- Evolutionary Status -->
     <defs>
      <path d="M 9.8125 72.90625 
L 55.90625 72.90625 
L 55.90625 64.59375 
L 19.671875 64.59375 
L 19.671875 43.015625 
L 54.390625 43.015625 
L 54.390625 34.71875 
L 19.671875 34.71875 
L 19.671875 8.296875 
L 56.78125 8.296875 
L 56.78125 0 
L 9.8125 0 
z
" id="DejaVuSans-69"/>
      <path d="M 9.421875 75.984375 
L 18.40625 75.984375 
L 18.40625 0 
L 9.421875 0 
z
" id="DejaVuSans-108"/>
      <path d="M 8.5 21.578125 
L 8.5 54.6875 
L 17.484375 54.6875 
L 17.484375 21.921875 
Q 17.484375 14.15625 20.5 10.265625 
Q 23.53125 6.390625 29.59375 6.390625 
Q 36.859375 6.390625 41.078125 11.03125 
Q 45.3125 15.671875 45.3125 23.6875 
L 45.3125 54.6875 
L 54.296875 54.6875 
L 54.296875 0 
L 45.3125 0 
L 45.3125 8.40625 
Q 42.046875 3.421875 37.71875 1 
Q 33.40625 -1.421875 27.6875 -1.421875 
Q 18.265625 -1.421875 13.375 4.4375 
Q 8.5 10.296875 8.5 21.578125 
z
M 31.109375 56 
z
" id="DejaVuSans-117"/>
      <path d="M 9.421875 54.6875 
L 18.40625 54.6875 
L 18.40625 0 
L 9.421875 0 
z
M 9.421875 75.984375 
L 18.40625 75.984375 
L 18.40625 64.59375 
L 9.421875 64.59375 
z
" id="DejaVuSans-105"/>
      <path d="M 32.171875 -5.078125 
Q 28.375 -14.84375 24.75 -17.8125 
Q 21.140625 -20.796875 15.09375 -20.796875 
L 7.90625 -20.796875 
L 7.90625 -13.28125 
L 13.1875 -13.28125 
Q 16.890625 -13.28125 18.9375 -11.515625 
Q 21 -9.765625 23.484375 -3.21875 
L 25.09375 0.875 
L 2.984375 54.6875 
L 12.5 54.6875 
L 29.59375 11.921875 
L 46.6875 54.6875 
L 56.203125 54.6875 
z
" id="DejaVuSans-121"/>
      <path id="DejaVuSans-32"/>
      <path d="M 53.515625 70.515625 
L 53.515625 60.890625 
Q 47.90625 63.578125 42.921875 64.890625 
Q 37.9375 66.21875 33.296875 66.21875 
Q 25.25 66.21875 20.875 63.09375 
Q 16.5 59.96875 16.5 54.203125 
Q 16.5 49.359375 19.40625 46.890625 
Q 22.3125 44.4375 30.421875 42.921875 
L 36.375 41.703125 
Q 47.40625 39.59375 52.65625 34.296875 
Q 57.90625 29 57.90625 20.125 
Q 57.90625 9.515625 50.796875 4.046875 
Q 43.703125 -1.421875 29.984375 -1.421875 
Q 24.8125 -1.421875 18.96875 -0.25 
Q 13.140625 0.921875 6.890625 3.21875 
L 6.890625 13.375 
Q 12.890625 10.015625 18.65625 8.296875 
Q 24.421875 6.59375 29.984375 6.59375 
Q 38.421875 6.59375 43.015625 9.90625 
Q 47.609375 13.234375 47.609375 19.390625 
Q 47.609375 24.75 44.3125 27.78125 
Q 41.015625 30.8125 33.5 32.328125 
L 27.484375 33.5 
Q 16.453125 35.6875 11.515625 40.375 
Q 6.59375 45.0625 6.59375 53.421875 
Q 6.59375 63.09375 13.40625 68.65625 
Q 20.21875 74.21875 32.171875 74.21875 
Q 37.3125 74.21875 42.625 73.28125 
Q 47.953125 72.359375 53.515625 70.515625 
z
" id="DejaVuSans-83"/>
     </defs>
     <g transform="translate(173.465781 281.750187)scale(0.1 -0.1)">
      <use xlink:href="#DejaVuSans-69"/>
      <use x="63.183594" xlink:href="#DejaVuSans-118"/>
      <use x="122.363281" xlink:href="#DejaVuSans-111"/>
      <use x="183.544922" xlink:href="#DejaVuSans-108"/>
      <use x="211.328125" xlink:href="#DejaVuSans-117"/>
      <use x="274.707031" xlink:href="#DejaVuSans-116"/>
      <use x="313.916016" xlink:href="#DejaVuSans-105"/>
      <use x="341.699219" xlink:href="#DejaVuSans-111"/>
      <use x="402.880859" xlink:href="#DejaVuSans-110"/>
      <use x="466.259766" xlink:href="#DejaVuSans-97"/>
      <use x="527.539062" xlink:href="#DejaVuSans-114"/>
      <use x="568.652344" xlink:href="#DejaVuSans-121"/>
      <use x="627.832031" xlink:href="#DejaVuSans-32"/>
      <use x="659.619141" xlink:href="#DejaVuSans-83"/>
      <use x="723.095703" xlink:href="#DejaVuSans-116"/>
      <use x="762.304688" xlink:href="#DejaVuSans-97"/>
      <use x="823.583984" xlink:href="#DejaVuSans-116"/>
      <use x="862.792969" xlink:href="#DejaVuSans-117"/>
      <use x="926.171875" xlink:href="#DejaVuSans-115"/>
     </g>
     <!-- (D. pseudoobscura) -->
     <defs>
      <path d="M 31 75.875 
Q 24.46875 64.65625 21.28125 53.65625 
Q 18.109375 42.671875 18.109375 31.390625 
Q 18.109375 20.125 21.3125 9.0625 
Q 24.515625 -2 31 -13.1875 
L 23.1875 -13.1875 
Q 15.875 -1.703125 12.234375 9.375 
Q 8.59375 20.453125 8.59375 31.390625 
Q 8.59375 42.28125 12.203125 53.3125 
Q 15.828125 64.359375 23.1875 75.875 
z
" id="DejaVuSans-40"/>
      <path d="M 19.671875 64.796875 
L 19.671875 8.109375 
L 31.59375 8.109375 
Q 46.6875 8.109375 53.6875 14.9375 
Q 60.6875 21.78125 60.6875 36.53125 
Q 60.6875 51.171875 53.6875 57.984375 
Q 46.6875 64.796875 31.59375 64.796875 
z
M 9.8125 72.90625 
L 30.078125 72.90625 
Q 51.265625 72.90625 61.171875 64.09375 
Q 71.09375 55.28125 71.09375 36.53125 
Q 71.09375 17.671875 61.125 8.828125 
Q 51.171875 0 30.078125 0 
L 9.8125 0 
z
" id="DejaVuSans-68"/>
      <path d="M 10.6875 12.40625 
L 21 12.40625 
L 21 0 
L 10.6875 0 
z
" id="DejaVuSans-46"/>
      <path d="M 18.109375 8.203125 
L 18.109375 -20.796875 
L 9.078125 -20.796875 
L 9.078125 54.6875 
L 18.109375 54.6875 
L 18.109375 46.390625 
Q 20.953125 51.265625 25.265625 53.625 
Q 29.59375 56 35.59375 56 
Q 45.5625 56 51.78125 48.09375 
Q 58.015625 40.1875 58.015625 27.296875 
Q 58.015625 14.40625 51.78125 6.484375 
Q 45.5625 -1.421875 35.59375 -1.421875 
Q 29.59375 -1.421875 25.265625 0.953125 
Q 20.953125 3.328125 18.109375 8.203125 
z
M 48.6875 27.296875 
Q 48.6875 37.203125 44.609375 42.84375 
Q 40.53125 48.484375 33.40625 48.484375 
Q 26.265625 48.484375 22.1875 42.84375 
Q 18.109375 37.203125 18.109375 27.296875 
Q 18.109375 17.390625 22.1875 11.75 
Q 26.265625 6.109375 33.40625 6.109375 
Q 40.53125 6.109375 44.609375 11.75 
Q 48.6875 17.390625 48.6875 27.296875 
z
" id="DejaVuSans-112"/>
      <path d="M 48.6875 27.296875 
Q 48.6875 37.203125 44.609375 42.84375 
Q 40.53125 48.484375 33.40625 48.484375 
Q 26.265625 48.484375 22.1875 42.84375 
Q 18.109375 37.203125 18.109375 27.296875 
Q 18.109375 17.390625 22.1875 11.75 
Q 26.265625 6.109375 33.40625 6.109375 
Q 40.53125 6.109375 44.609375 11.75 
Q 48.6875 17.390625 48.6875 27.296875 
z
M 18.109375 46.390625 
Q 20.953125 51.265625 25.265625 53.625 
Q 29.59375 56 35.59375 56 
Q 45.5625 56 51.78125 48.09375 
Q 58.015625 40.1875 58.015625 27.296875 
Q 58.015625 14.40625 51.78125 6.484375 
Q 45.5625 -1.421875 35.59375 -1.421875 
Q 29.59375 -1.421875 25.265625 0.953125 
Q 20.953125 3.328125 18.109375 8.203125 
L 18.109375 0 
L 9.078125 0 
L 9.078125 75.984375 
L 18.109375 75.984375 
z
" id="DejaVuSans-98"/>
      <path d="M 8.015625 75.875 
L 15.828125 75.875 
Q 23.140625 64.359375 26.78125 53.3125 
Q 30.421875 42.28125 30.421875 31.390625 
Q 30.421875 20.453125 26.78125 9.375 
Q 23.140625 -1.703125 15.828125 -13.1875 
L 8.015625 -13.1875 
Q 14.5 -2 17.703125 9.0625 
Q 20.90625 20.125 20.90625 31.390625 
Q 20.90625 42.671875 17.703125 53.65625 
Q 14.5 64.65625 8.015625 75.875 
z
" id="DejaVuSans-41"/>
     </defs>
     <g transform="translate(173.315781 292.948)scale(0.1 -0.1)">
      <use xlink:href="#DejaVuSans-40"/>
      <use x="39.013672" xlink:href="#DejaVuSans-68"/>
      <use x="116.015625" xlink:href="#DejaVuSans-46"/>
      <use x="147.802734" xlink:href="#DejaVuSans-32"/>
      <use x="179.589844" xlink:href="#DejaVuSans-112"/>
      <use x="243.066406" xlink:href="#DejaVuSans-115"/>
      <use x="295.166016" xlink:href="#DejaVuSans-101"/>
      <use x="356.689453" xlink:href="#DejaVuSans-117"/>
      <use x="420.068359" xlink:href="#DejaVuSans-100"/>
      <use x="483.544922" xlink:href="#DejaVuSans-111"/>
      <use x="544.726562" xlink:href="#DejaVuSans-111"/>
      <use x="605.908203" xlink:href="#DejaVuSans-98"/>
      <use x="669.384766" xlink:href="#DejaVuSans-115"/>
      <use x="721.484375" xlink:href="#DejaVuSans-99"/>
      <use x="776.464844" xlink:href="#DejaVuSans-117"/>
      <use x="839.84375" xlink:href="#DejaVuSans-114"/>
      <use x="880.957031" xlink:href="#DejaVuSans-97"/>
      <use x="942.236328" xlink:href="#DejaVuSans-41"/>
     </g>
    </g>
   </g>
   <g id="matplotlib.axis_2">
    <g id="ytick_1">
     <g id="line2d_5">
      <defs>
       <path d="M 0 0 
L -3.5 0 
" id="m509c512e4f" style="stroke:#000000;stroke-width:0.8;"/>
      </defs>
      <g>
       <use style="stroke:#000000;stroke-width:0.8;" x="54.979063" xlink:href="#m509c512e4f" y="235.0755"/>
      </g>
     </g>
     <g id="text_6">
      <!-- 0.0 -->
      <defs>
       <path d="M 31.78125 66.40625 
Q 24.171875 66.40625 20.328125 58.90625 
Q 16.5 51.421875 16.5 36.375 
Q 16.5 21.390625 20.328125 13.890625 
Q 24.171875 6.390625 31.78125 6.390625 
Q 39.453125 6.390625 43.28125 13.890625 
Q 47.125 21.390625 47.125 36.375 
Q 47.125 51.421875 43.28125 58.90625 
Q 39.453125 66.40625 31.78125 66.40625 
z
M 31.78125 74.21875 
Q 44.046875 74.21875 50.515625 64.515625 
Q 56.984375 54.828125 56.984375 36.375 
Q 56.984375 17.96875 50.515625 8.265625 
Q 44.046875 -1.421875 31.78125 -1.421875 
Q 19.53125 -1.421875 13.0625 8.265625 
Q 6.59375 17.96875 6.59375 36.375 
Q 6.59375 54.828125 13.0625 64.515625 
Q 19.53125 74.21875 31.78125 74.21875 
z
" id="DejaVuSans-48"/>
      </defs>
      <g transform="translate(32.075938 238.874719)scale(0.1 -0.1)">
       <use xlink:href="#DejaVuSans-48"/>
       <use x="63.623047" xlink:href="#DejaVuSans-46"/>
       <use x="95.410156" xlink:href="#DejaVuSans-48"/>
      </g>
     </g>
    </g>
    <g id="ytick_2">
     <g id="line2d_6">
      <g>
       <use style="stroke:#000000;stroke-width:0.8;" x="54.979063" xlink:href="#m509c512e4f" y="198.8355"/>
      </g>
     </g>
     <g id="text_7">
      <!-- 0.2 -->
      <defs>
       <path d="M 19.1875 8.296875 
L 53.609375 8.296875 
L 53.609375 0 
L 7.328125 0 
L 7.328125 8.296875 
Q 12.9375 14.109375 22.625 23.890625 
Q 32.328125 33.6875 34.8125 36.53125 
Q 39.546875 41.84375 41.421875 45.53125 
Q 43.3125 49.21875 43.3125 52.78125 
Q 43.3125 58.59375 39.234375 62.25 
Q 35.15625 65.921875 28.609375 65.921875 
Q 23.96875 65.921875 18.8125 64.3125 
Q 13.671875 62.703125 7.8125 59.421875 
L 7.8125 69.390625 
Q 13.765625 71.78125 18.9375 73 
Q 24.125 74.21875 28.421875 74.21875 
Q 39.75 74.21875 46.484375 68.546875 
Q 53.21875 62.890625 53.21875 53.421875 
Q 53.21875 48.921875 51.53125 44.890625 
Q 49.859375 40.875 45.40625 35.40625 
Q 44.1875 33.984375 37.640625 27.21875 
Q 31.109375 20.453125 19.1875 8.296875 
z
" id="DejaVuSans-50"/>
      </defs>
      <g transform="translate(32.075938 202.634719)scale(0.1 -0.1)">
       <use xlink:href="#DejaVuSans-48"/>
       <use x="63.623047" xlink:href="#DejaVuSans-46"/>
       <use x="95.410156" xlink:href="#DejaVuSans-50"/>
      </g>
     </g>
    </g>
    <g id="ytick_3">
     <g id="line2d_7">
      <g>
       <use style="stroke:#000000;stroke-width:0.8;" x="54.979063" xlink:href="#m509c512e4f" y="162.5955"/>
      </g>
     </g>
     <g id="text_8">
      <!-- 0.4 -->
      <defs>
       <path d="M 37.796875 64.3125 
L 12.890625 25.390625 
L 37.796875 25.390625 
z
M 35.203125 72.90625 
L 47.609375 72.90625 
L 47.609375 25.390625 
L 58.015625 25.390625 
L 58.015625 17.1875 
L 47.609375 17.1875 
L 47.609375 0 
L 37.796875 0 
L 37.796875 17.1875 
L 4.890625 17.1875 
L 4.890625 26.703125 
z
" id="DejaVuSans-52"/>
      </defs>
      <g transform="translate(32.075938 166.394719)scale(0.1 -0.1)">
       <use xlink:href="#DejaVuSans-48"/>
       <use x="63.623047" xlink:href="#DejaVuSans-46"/>
       <use x="95.410156" xlink:href="#DejaVuSans-52"/>
      </g>
     </g>
    </g>
    <g id="ytick_4">
     <g id="line2d_8">
      <g>
       <use style="stroke:#000000;stroke-width:0.8;" x="54.979063" xlink:href="#m509c512e4f" y="126.3555"/>
      </g>
     </g>
     <g id="text_9">
      <!-- 0.6 -->
      <defs>
       <path d="M 33.015625 40.375 
Q 26.375 40.375 22.484375 35.828125 
Q 18.609375 31.296875 18.609375 23.390625 
Q 18.609375 15.53125 22.484375 10.953125 
Q 26.375 6.390625 33.015625 6.390625 
Q 39.65625 6.390625 43.53125 10.953125 
Q 47.40625 15.53125 47.40625 23.390625 
Q 47.40625 31.296875 43.53125 35.828125 
Q 39.65625 40.375 33.015625 40.375 
z
M 52.59375 71.296875 
L 52.59375 62.3125 
Q 48.875 64.0625 45.09375 64.984375 
Q 41.3125 65.921875 37.59375 65.921875 
Q 27.828125 65.921875 22.671875 59.328125 
Q 17.53125 52.734375 16.796875 39.40625 
Q 19.671875 43.65625 24.015625 45.921875 
Q 28.375 48.1875 33.59375 48.1875 
Q 44.578125 48.1875 50.953125 41.515625 
Q 57.328125 34.859375 57.328125 23.390625 
Q 57.328125 12.15625 50.6875 5.359375 
Q 44.046875 -1.421875 33.015625 -1.421875 
Q 20.359375 -1.421875 13.671875 8.265625 
Q 6.984375 17.96875 6.984375 36.375 
Q 6.984375 53.65625 15.1875 63.9375 
Q 23.390625 74.21875 37.203125 74.21875 
Q 40.921875 74.21875 44.703125 73.484375 
Q 48.484375 72.75 52.59375 71.296875 
z
" id="DejaVuSans-54"/>
      </defs>
      <g transform="translate(32.075938 130.154719)scale(0.1 -0.1)">
       <use xlink:href="#DejaVuSans-48"/>
       <use x="63.623047" xlink:href="#DejaVuSans-46"/>
       <use x="95.410156" xlink:href="#DejaVuSans-54"/>
      </g>
     </g>
    </g>
    <g id="ytick_5">
     <g id="line2d_9">
      <g>
       <use style="stroke:#000000;stroke-width:0.8;" x="54.979063" xlink:href="#m509c512e4f" y="90.1155"/>
      </g>
     </g>
     <g id="text_10">
      <!-- 0.8 -->
      <defs>
       <path d="M 31.78125 34.625 
Q 24.75 34.625 20.71875 30.859375 
Q 16.703125 27.09375 16.703125 20.515625 
Q 16.703125 13.921875 20.71875 10.15625 
Q 24.75 6.390625 31.78125 6.390625 
Q 38.8125 6.390625 42.859375 10.171875 
Q 46.921875 13.96875 46.921875 20.515625 
Q 46.921875 27.09375 42.890625 30.859375 
Q 38.875 34.625 31.78125 34.625 
z
M 21.921875 38.8125 
Q 15.578125 40.375 12.03125 44.71875 
Q 8.5 49.078125 8.5 55.328125 
Q 8.5 64.0625 14.71875 69.140625 
Q 20.953125 74.21875 31.78125 74.21875 
Q 42.671875 74.21875 48.875 69.140625 
Q 55.078125 64.0625 55.078125 55.328125 
Q 55.078125 49.078125 51.53125 44.71875 
Q 48 40.375 41.703125 38.8125 
Q 48.828125 37.15625 52.796875 32.3125 
Q 56.78125 27.484375 56.78125 20.515625 
Q 56.78125 9.90625 50.3125 4.234375 
Q 43.84375 -1.421875 31.78125 -1.421875 
Q 19.734375 -1.421875 13.25 4.234375 
Q 6.78125 9.90625 6.78125 20.515625 
Q 6.78125 27.484375 10.78125 32.3125 
Q 14.796875 37.15625 21.921875 38.8125 
z
M 18.3125 54.390625 
Q 18.3125 48.734375 21.84375 45.5625 
Q 25.390625 42.390625 31.78125 42.390625 
Q 38.140625 42.390625 41.71875 45.5625 
Q 45.3125 48.734375 45.3125 54.390625 
Q 45.3125 60.0625 41.71875 63.234375 
Q 38.140625 66.40625 31.78125 66.40625 
Q 25.390625 66.40625 21.84375 63.234375 
Q 18.3125 60.0625 18.3125 54.390625 
z
" id="DejaVuSans-56"/>
      </defs>
      <g transform="translate(32.075938 93.914719)scale(0.1 -0.1)">
       <use xlink:href="#DejaVuSans-48"/>
       <use x="63.623047" xlink:href="#DejaVuSans-46"/>
       <use x="95.410156" xlink:href="#DejaVuSans-56"/>
      </g>
     </g>
    </g>
    <g id="ytick_6">
     <g id="line2d_10">
      <g>
       <use style="stroke:#000000;stroke-width:0.8;" x="54.979063" xlink:href="#m509c512e4f" y="53.8755"/>
      </g>
     </g>
     <g id="text_11">
      <!-- 1.0 -->
      <defs>
       <path d="M 12.40625 8.296875 
L 28.515625 8.296875 
L 28.515625 63.921875 
L 10.984375 60.40625 
L 10.984375 69.390625 
L 28.421875 72.90625 
L 38.28125 72.90625 
L 38.28125 8.296875 
L 54.390625 8.296875 
L 54.390625 0 
L 12.40625 0 
z
" id="DejaVuSans-49"/>
      </defs>
      <g transform="translate(32.075938 57.674719)scale(0.1 -0.1)">
       <use xlink:href="#DejaVuSans-49"/>
       <use x="63.623047" xlink:href="#DejaVuSans-46"/>
       <use x="95.410156" xlink:href="#DejaVuSans-48"/>
      </g>
     </g>
    </g>
    <g id="text_12">
     <!-- Percent Cells with Expression -->
     <defs>
      <path d="M 19.671875 64.796875 
L 19.671875 37.40625 
L 32.078125 37.40625 
Q 38.96875 37.40625 42.71875 40.96875 
Q 46.484375 44.53125 46.484375 51.125 
Q 46.484375 57.671875 42.71875 61.234375 
Q 38.96875 64.796875 32.078125 64.796875 
z
M 9.8125 72.90625 
L 32.078125 72.90625 
Q 44.34375 72.90625 50.609375 67.359375 
Q 56.890625 61.8125 56.890625 51.125 
Q 56.890625 40.328125 50.609375 34.8125 
Q 44.34375 29.296875 32.078125 29.296875 
L 19.671875 29.296875 
L 19.671875 0 
L 9.8125 0 
z
" id="DejaVuSans-80"/>
      <path d="M 64.40625 67.28125 
L 64.40625 56.890625 
Q 59.421875 61.53125 53.78125 63.8125 
Q 48.140625 66.109375 41.796875 66.109375 
Q 29.296875 66.109375 22.65625 58.46875 
Q 16.015625 50.828125 16.015625 36.375 
Q 16.015625 21.96875 22.65625 14.328125 
Q 29.296875 6.6875 41.796875 6.6875 
Q 48.140625 6.6875 53.78125 8.984375 
Q 59.421875 11.28125 64.40625 15.921875 
L 64.40625 5.609375 
Q 59.234375 2.09375 53.4375 0.328125 
Q 47.65625 -1.421875 41.21875 -1.421875 
Q 24.65625 -1.421875 15.125 8.703125 
Q 5.609375 18.84375 5.609375 36.375 
Q 5.609375 53.953125 15.125 64.078125 
Q 24.65625 74.21875 41.21875 74.21875 
Q 47.75 74.21875 53.53125 72.484375 
Q 59.328125 70.75 64.40625 67.28125 
z
" id="DejaVuSans-67"/>
      <path d="M 4.203125 54.6875 
L 13.1875 54.6875 
L 24.421875 12.015625 
L 35.59375 54.6875 
L 46.1875 54.6875 
L 57.421875 12.015625 
L 68.609375 54.6875 
L 77.59375 54.6875 
L 63.28125 0 
L 52.6875 0 
L 40.921875 44.828125 
L 29.109375 0 
L 18.5 0 
z
" id="DejaVuSans-119"/>
      <path d="M 54.890625 54.6875 
L 35.109375 28.078125 
L 55.90625 0 
L 45.3125 0 
L 29.390625 21.484375 
L 13.484375 0 
L 2.875 0 
L 24.125 28.609375 
L 4.6875 54.6875 
L 15.28125 54.6875 
L 29.78125 35.203125 
L 44.28125 54.6875 
z
" id="DejaVuSans-120"/>
     </defs>
     <g transform="translate(14.798438 218.148156)rotate(-90)scale(0.1 -0.1)">
      <use xlink:href="#DejaVuSans-80"/>
      <use x="60.255859" xlink:href="#DejaVuSans-101"/>
      <use x="121.779297" xlink:href="#DejaVuSans-114"/>
      <use x="162.861328" xlink:href="#DejaVuSans-99"/>
      <use x="217.841797" xlink:href="#DejaVuSans-101"/>
      <use x="279.365234" xlink:href="#DejaVuSans-110"/>
      <use x="342.744141" xlink:href="#DejaVuSans-116"/>
      <use x="381.953125" xlink:href="#DejaVuSans-32"/>
      <use x="413.740234" xlink:href="#DejaVuSans-67"/>
      <use x="483.564453" xlink:href="#DejaVuSans-101"/>
      <use x="545.087891" xlink:href="#DejaVuSans-108"/>
      <use x="572.871094" xlink:href="#DejaVuSans-108"/>
      <use x="600.654297" xlink:href="#DejaVuSans-115"/>
      <use x="652.753906" xlink:href="#DejaVuSans-32"/>
      <use x="684.541016" xlink:href="#DejaVuSans-119"/>
      <use x="766.328125" xlink:href="#DejaVuSans-105"/>
      <use x="794.111328" xlink:href="#DejaVuSans-116"/>
      <use x="833.320312" xlink:href="#DejaVuSans-104"/>
      <use x="896.699219" xlink:href="#DejaVuSans-32"/>
      <use x="928.486328" xlink:href="#DejaVuSans-69"/>
      <use x="991.669922" xlink:href="#DejaVuSans-120"/>
      <use x="1050.849609" xlink:href="#DejaVuSans-112"/>
      <use x="1114.326172" xlink:href="#DejaVuSans-114"/>
      <use x="1155.408203" xlink:href="#DejaVuSans-101"/>
      <use x="1216.931641" xlink:href="#DejaVuSans-115"/>
      <use x="1269.03125" xlink:href="#DejaVuSans-115"/>
      <use x="1321.130859" xlink:href="#DejaVuSans-105"/>
      <use x="1348.914062" xlink:href="#DejaVuSans-111"/>
      <use x="1410.095703" xlink:href="#DejaVuSans-110"/>
     </g>
     <!-- (Spermatocytes) -->
     <g transform="translate(25.99625 186.160656)rotate(-90)scale(0.1 -0.1)">
      <use xlink:href="#DejaVuSans-40"/>
      <use x="39.013672" xlink:href="#DejaVuSans-83"/>
      <use x="102.490234" xlink:href="#DejaVuSans-112"/>
      <use x="165.966797" xlink:href="#DejaVuSans-101"/>
      <use x="227.490234" xlink:href="#DejaVuSans-114"/>
      <use x="268.587891" xlink:href="#DejaVuSans-109"/>
      <use x="366" xlink:href="#DejaVuSans-97"/>
      <use x="427.279297" xlink:href="#DejaVuSans-116"/>
      <use x="466.488281" xlink:href="#DejaVuSans-111"/>
      <use x="527.669922" xlink:href="#DejaVuSans-99"/>
      <use x="582.650391" xlink:href="#DejaVuSans-121"/>
      <use x="641.830078" xlink:href="#DejaVuSans-116"/>
      <use x="681.039062" xlink:href="#DejaVuSans-101"/>
      <use x="742.5625" xlink:href="#DejaVuSans-115"/>
      <use x="794.662109" xlink:href="#DejaVuSans-41"/>
     </g>
    </g>
   </g>
   <g id="line2d_11">
    <path clip-path="url(#p46560ced18)" d="M 96.829063 203.7279 
L 96.829063 221.6667 
" style="fill:none;stroke:#3d3d3d;stroke-linecap:square;stroke-width:1.5;"/>
   </g>
   <g id="line2d_12">
    <path clip-path="url(#p46560ced18)" d="M 96.829063 185.6985 
L 96.829063 162.9579 
" style="fill:none;stroke:#3d3d3d;stroke-linecap:square;stroke-width:1.5;"/>
   </g>
   <g id="line2d_13">
    <path clip-path="url(#p46560ced18)" d="M 80.089063 221.6667 
L 113.569063 221.6667 
" style="fill:none;stroke:#3d3d3d;stroke-linecap:square;stroke-width:1.5;"/>
   </g>
   <g id="line2d_14">
    <path clip-path="url(#p46560ced18)" d="M 80.089063 162.9579 
L 113.569063 162.9579 
" style="fill:none;stroke:#3d3d3d;stroke-linecap:square;stroke-width:1.5;"/>
   </g>
   <g id="line2d_15">
    <path clip-path="url(#p46560ced18)" d="M 180.529063 171.1572 
L 180.529063 180.5343 
" style="fill:none;stroke:#3d3d3d;stroke-linecap:square;stroke-width:1.5;"/>
   </g>
   <g id="line2d_16">
    <path clip-path="url(#p46560ced18)" d="M 180.529063 152.403 
L 180.529063 143.0259 
" style="fill:none;stroke:#3d3d3d;stroke-linecap:square;stroke-width:1.5;"/>
   </g>
   <g id="line2d_17">
    <path clip-path="url(#p46560ced18)" d="M 163.789062 180.5343 
L 197.269063 180.5343 
" style="fill:none;stroke:#3d3d3d;stroke-linecap:square;stroke-width:1.5;"/>
   </g>
   <g id="line2d_18">
    <path clip-path="url(#p46560ced18)" d="M 163.789062 143.0259 
L 197.269063 143.0259 
" style="fill:none;stroke:#3d3d3d;stroke-linecap:square;stroke-width:1.5;"/>
   </g>
   <g id="line2d_19">
    <path clip-path="url(#p46560ced18)" d="M 264.229062 197.2047 
L 264.229062 216.5931 
" style="fill:none;stroke:#3d3d3d;stroke-linecap:square;stroke-width:1.5;"/>
   </g>
   <g id="line2d_20">
    <path clip-path="url(#p46560ced18)" d="M 264.229062 158.4732 
L 264.229062 105.8799 
" style="fill:none;stroke:#3d3d3d;stroke-linecap:square;stroke-width:1.5;"/>
   </g>
   <g id="line2d_21">
    <path clip-path="url(#p46560ced18)" d="M 247.489062 216.5931 
L 280.969063 216.5931 
" style="fill:none;stroke:#3d3d3d;stroke-linecap:square;stroke-width:1.5;"/>
   </g>
   <g id="line2d_22">
    <path clip-path="url(#p46560ced18)" d="M 247.489062 105.8799 
L 280.969063 105.8799 
" style="fill:none;stroke:#3d3d3d;stroke-linecap:square;stroke-width:1.5;"/>
   </g>
   <g id="line2d_23">
    <path clip-path="url(#p46560ced18)" d="M 347.929063 192.5388 
L 347.929063 205.9023 
" style="fill:none;stroke:#3d3d3d;stroke-linecap:square;stroke-width:1.5;"/>
   </g>
   <g id="line2d_24">
    <path clip-path="url(#p46560ced18)" d="M 347.929063 169.8435 
L 347.929063 165.8571 
" style="fill:none;stroke:#3d3d3d;stroke-linecap:square;stroke-width:1.5;"/>
   </g>
   <g id="line2d_25">
    <path clip-path="url(#p46560ced18)" d="M 331.189062 205.9023 
L 364.669063 205.9023 
" style="fill:none;stroke:#3d3d3d;stroke-linecap:square;stroke-width:1.5;"/>
   </g>
   <g id="line2d_26">
    <path clip-path="url(#p46560ced18)" d="M 331.189062 165.8571 
L 364.669063 165.8571 
" style="fill:none;stroke:#3d3d3d;stroke-linecap:square;stroke-width:1.5;"/>
   </g>
   <g id="line2d_27">
    <path clip-path="url(#p46560ced18)" d="M 80.089063 196.1175 
L 113.569063 196.1175 
" style="fill:none;stroke:#3d3d3d;stroke-linecap:square;stroke-width:1.5;"/>
   </g>
   <g id="line2d_28">
    <path clip-path="url(#p46560ced18)" d="M 163.789062 161.7801 
L 197.269063 161.7801 
" style="fill:none;stroke:#3d3d3d;stroke-linecap:square;stroke-width:1.5;"/>
   </g>
   <g id="line2d_29">
    <path clip-path="url(#p46560ced18)" d="M 247.489062 185.4267 
L 280.969063 185.4267 
" style="fill:none;stroke:#3d3d3d;stroke-linecap:square;stroke-width:1.5;"/>
   </g>
   <g id="line2d_30">
    <path clip-path="url(#p46560ced18)" d="M 331.189062 185.6079 
L 364.669063 185.6079 
" style="fill:none;stroke:#3d3d3d;stroke-linecap:square;stroke-width:1.5;"/>
   </g>
   <g id="patch_7">
    <path d="M 54.979063 253.1955 
L 54.979063 35.7555 
" style="fill:none;stroke:#000000;stroke-linecap:square;stroke-linejoin:miter;stroke-width:0.8;"/>
   </g>
   <g id="patch_8">
    <path d="M 389.779063 253.1955 
L 389.779063 35.7555 
" style="fill:none;stroke:#000000;stroke-linecap:square;stroke-linejoin:miter;stroke-width:0.8;"/>
   </g>
   <g id="patch_9">
    <path d="M 54.979063 253.1955 
L 389.779063 253.1955 
" style="fill:none;stroke:#000000;stroke-linecap:square;stroke-linejoin:miter;stroke-width:0.8;"/>
   </g>
   <g id="patch_10">
    <path d="M 54.979063 35.7555 
L 389.779063 35.7555 
" style="fill:none;stroke:#000000;stroke-linecap:square;stroke-linejoin:miter;stroke-width:0.8;"/>
   </g>
   <g id="PathCollection_1">
    <defs>
     <path d="M 0 2 
C 0.530406 2 1.03916 1.789267 1.414214 1.414214 
C 1.789267 1.03916 2 0.530406 2 0 
C 2 -0.530406 1.789267 -1.03916 1.414214 -1.414214 
C 1.03916 -1.789267 0.530406 -2 0 -2 
C -0.530406 -2 -1.03916 -1.789267 -1.414214 -1.414214 
C -1.789267 -1.03916 -2 -0.530406 -2 0 
C -2 0.530406 -1.789267 1.03916 -1.414214 1.414214 
C -1.03916 1.789267 -0.530406 2 0 2 
z
" id="C0_0_e752c963f6"/>
    </defs>
    <g clip-path="url(#p46560ced18)">
     <use x="96.829063" xlink:href="#C0_0_e752c963f6" y="221.6667"/>
    </g>
    <g clip-path="url(#p46560ced18)">
     <use x="95.703666" xlink:href="#C0_0_e752c963f6" y="218.5863"/>
    </g>
    <g clip-path="url(#p46560ced18)">
     <use x="99.164076" xlink:href="#C0_0_e752c963f6" y="216.7743"/>
    </g>
    <g clip-path="url(#p46560ced18)">
     <use x="92.419665" xlink:href="#C0_0_e752c963f6" y="216.5931"/>
    </g>
    <g clip-path="url(#p46560ced18)">
     <use x="103.11381" xlink:href="#C0_0_e752c963f6" y="215.6871"/>
    </g>
    <g clip-path="url(#p46560ced18)">
     <use x="96.829063" xlink:href="#C0_0_e752c963f6" y="212.6067"/>
    </g>
    <g clip-path="url(#p46560ced18)">
     <use x="92.738401" xlink:href="#C0_0_e752c963f6" y="211.8819"/>
    </g>
    <g clip-path="url(#p46560ced18)">
     <use x="100.778796" xlink:href="#C0_0_e752c963f6" y="211.5195"/>
    </g>
    <g clip-path="url(#p46560ced18)">
     <use x="88.994868" xlink:href="#C0_0_e752c963f6" y="210.4323"/>
    </g>
    <g clip-path="url(#p46560ced18)">
     <use x="96.829063" xlink:href="#C0_0_e752c963f6" y="208.8015"/>
    </g>
    <g clip-path="url(#p46560ced18)">
     <use x="92.635813" xlink:href="#C0_0_e752c963f6" y="208.6203"/>
    </g>
    <g clip-path="url(#p46560ced18)">
     <use x="100.778796" xlink:href="#C0_0_e752c963f6" y="207.7143"/>
    </g>
    <g clip-path="url(#p46560ced18)">
     <use x="95.703666" xlink:href="#C0_0_e752c963f6" y="205.7211"/>
    </g>
    <g clip-path="url(#p46560ced18)">
     <use x="91.510416" xlink:href="#C0_0_e752c963f6" y="205.5399"/>
    </g>
    <g clip-path="url(#p46560ced18)">
     <use x="102.549715" xlink:href="#C0_0_e752c963f6" y="204.8151"/>
    </g>
    <g clip-path="url(#p46560ced18)">
     <use x="87.766884" xlink:href="#C0_0_e752c963f6" y="204.0903"/>
    </g>
    <g clip-path="url(#p46560ced18)">
     <use x="98.543595" xlink:href="#C0_0_e752c963f6" y="203.3655"/>
    </g>
    <g clip-path="url(#p46560ced18)">
     <use x="106.162317" xlink:href="#C0_0_e752c963f6" y="203.1843"/>
    </g>
    <g clip-path="url(#p46560ced18)">
     <use x="83.73903" xlink:href="#C0_0_e752c963f6" y="203.1843"/>
    </g>
    <g clip-path="url(#p46560ced18)">
     <use x="110.362317" xlink:href="#C0_0_e752c963f6" y="203.1843"/>
    </g>
    <g clip-path="url(#p46560ced18)">
     <use x="93.932748" xlink:href="#C0_0_e752c963f6" y="202.8219"/>
    </g>
    <g clip-path="url(#p46560ced18)">
     <use x="101.827597" xlink:href="#C0_0_e752c963f6" y="201.3723"/>
    </g>
    <g clip-path="url(#p46560ced18)">
     <use x="90.648746" xlink:href="#C0_0_e752c963f6" y="200.8287"/>
    </g>
    <g clip-path="url(#p46560ced18)">
     <use x="96.829063" xlink:href="#C0_0_e752c963f6" y="199.9227"/>
    </g>
    <g clip-path="url(#p46560ced18)">
     <use x="105.288006" xlink:href="#C0_0_e752c963f6" y="199.5603"/>
    </g>
    <g clip-path="url(#p46560ced18)">
     <use x="87.188336" xlink:href="#C0_0_e752c963f6" y="199.0167"/>
    </g>
    <g clip-path="url(#p46560ced18)">
     <use x="109.23774" xlink:href="#C0_0_e752c963f6" y="198.4731"/>
    </g>
    <g clip-path="url(#p46560ced18)">
     <use x="100.113064" xlink:href="#C0_0_e752c963f6" y="197.9295"/>
    </g>
    <g clip-path="url(#p46560ced18)">
     <use x="93.749844" xlink:href="#C0_0_e752c963f6" y="197.7483"/>
    </g>
    <g clip-path="url(#p46560ced18)">
     <use x="84.348408" xlink:href="#C0_0_e752c963f6" y="196.6611"/>
    </g>
    <g clip-path="url(#p46560ced18)">
     <use x="90.006311" xlink:href="#C0_0_e752c963f6" y="196.2987"/>
    </g>
    <g clip-path="url(#p46560ced18)">
     <use x="103.573474" xlink:href="#C0_0_e752c963f6" y="196.1175"/>
    </g>
    <g clip-path="url(#p46560ced18)">
     <use x="97.033846" xlink:href="#C0_0_e752c963f6" y="195.7551"/>
    </g>
    <g clip-path="url(#p46560ced18)">
     <use x="111.008659" xlink:href="#C0_0_e752c963f6" y="195.5739"/>
    </g>
    <g clip-path="url(#p46560ced18)">
     <use x="93.421244" xlink:href="#C0_0_e752c963f6" y="194.1243"/>
    </g>
    <g clip-path="url(#p46560ced18)">
     <use x="99.873774" xlink:href="#C0_0_e752c963f6" y="193.3995"/>
    </g>
    <g clip-path="url(#p46560ced18)">
     <use x="89.808642" xlink:href="#C0_0_e752c963f6" y="192.4935"/>
    </g>
    <g clip-path="url(#p46560ced18)">
     <use x="96.589773" xlink:href="#C0_0_e752c963f6" y="191.4063"/>
    </g>
    <g clip-path="url(#p46560ced18)">
     <use x="103.157776" xlink:href="#C0_0_e752c963f6" y="191.4063"/>
    </g>
    <g clip-path="url(#p46560ced18)">
     <use x="107.248437" xlink:href="#C0_0_e752c963f6" y="190.6815"/>
    </g>
    <g clip-path="url(#p46560ced18)">
     <use x="86.348232" xlink:href="#C0_0_e752c963f6" y="190.6815"/>
    </g>
    <g clip-path="url(#p46560ced18)">
     <use x="111.441687" xlink:href="#C0_0_e752c963f6" y="190.5003"/>
    </g>
    <g clip-path="url(#p46560ced18)">
     <use x="82.154982" xlink:href="#C0_0_e752c963f6" y="190.5003"/>
    </g>
    <g clip-path="url(#p46560ced18)">
     <use x="92.734403" xlink:href="#C0_0_e752c963f6" y="190.1379"/>
    </g>
    <g clip-path="url(#p46560ced18)">
     <use x="115.580539" xlink:href="#C0_0_e752c963f6" y="189.9567"/>
    </g>
    <g clip-path="url(#p46560ced18)">
     <use x="97.715169" xlink:href="#C0_0_e752c963f6" y="188.3259"/>
    </g>
    <g clip-path="url(#p46560ced18)">
     <use x="94.63595" xlink:href="#C0_0_e752c963f6" y="186.1515"/>
    </g>
    <g clip-path="url(#p46560ced18)">
     <use x="98.840565" xlink:href="#C0_0_e752c963f6" y="185.2455"/>
    </g>
    <g clip-path="url(#p46560ced18)">
     <use x="96.829063" xlink:href="#C0_0_e752c963f6" y="181.0779"/>
    </g>
    <g clip-path="url(#p46560ced18)">
     <use x="93.368653" xlink:href="#C0_0_e752c963f6" y="179.2659"/>
    </g>
    <g clip-path="url(#p46560ced18)">
     <use x="99.908281" xlink:href="#C0_0_e752c963f6" y="178.9035"/>
    </g>
    <g clip-path="url(#p46560ced18)">
     <use x="96.829063" xlink:href="#C0_0_e752c963f6" y="168.0315"/>
    </g>
    <g clip-path="url(#p46560ced18)">
     <use x="96.829063" xlink:href="#C0_0_e752c963f6" y="162.9579"/>
    </g>
    <g clip-path="url(#p46560ced18)">
     <use x="96.829063" xlink:href="#C0_0_e752c963f6" y="153.1731"/>
    </g>
    <g clip-path="url(#p46560ced18)">
     <use x="96.829063" xlink:href="#C0_0_e752c963f6" y="137.4087"/>
    </g>
    <g clip-path="url(#p46560ced18)">
     <use x="92.879329" xlink:href="#C0_0_e752c963f6" y="136.3215"/>
    </g>
    <g clip-path="url(#p46560ced18)">
     <use x="99.668991" xlink:href="#C0_0_e752c963f6" y="135.0531"/>
    </g>
    <g clip-path="url(#p46560ced18)">
     <use x="96.38499" xlink:href="#C0_0_e752c963f6" y="133.0599"/>
    </g>
    <g clip-path="url(#p46560ced18)">
     <use x="99.464208" xlink:href="#C0_0_e752c963f6" y="130.8855"/>
    </g>
    <g clip-path="url(#p46560ced18)">
     <use x="96.829063" xlink:href="#C0_0_e752c963f6" y="121.2819"/>
    </g>
    <g clip-path="url(#p46560ced18)">
     <use x="96.829063" xlink:href="#C0_0_e752c963f6" y="112.7655"/>
    </g>
    <g clip-path="url(#p46560ced18)">
     <use x="93.216461" xlink:href="#C0_0_e752c963f6" y="111.1347"/>
    </g>
    <g clip-path="url(#p46560ced18)">
     <use x="99.668991" xlink:href="#C0_0_e752c963f6" y="110.4099"/>
    </g>
   </g>
   <g id="PathCollection_2">
    <defs>
     <path d="M 0 2 
C 0.530406 2 1.03916 1.789267 1.414214 1.414214 
C 1.789267 1.03916 2 0.530406 2 0 
C 2 -0.530406 1.789267 -1.03916 1.414214 -1.414214 
C 1.03916 -1.789267 0.530406 -2 0 -2 
C -0.530406 -2 -1.03916 -1.789267 -1.414214 -1.414214 
C -1.789267 -1.03916 -2 -0.530406 -2 0 
C -2 0.530406 -1.789267 1.03916 -1.414214 1.414214 
C -1.03916 1.789267 -0.530406 2 0 2 
z
" id="C1_0_29b05a76f6"/>
    </defs>
    <g clip-path="url(#p46560ced18)">
     <use x="180.529063" xlink:href="#C1_0_29b05a76f6" y="180.5343"/>
    </g>
    <g clip-path="url(#p46560ced18)">
     <use x="180.529063" xlink:href="#C1_0_29b05a76f6" y="143.0259"/>
    </g>
   </g>
   <g id="PathCollection_3">
    <defs>
     <path d="M 0 2 
C 0.530406 2 1.03916 1.789267 1.414214 1.414214 
C 1.789267 1.03916 2 0.530406 2 0 
C 2 -0.530406 1.789267 -1.03916 1.414214 -1.414214 
C 1.03916 -1.789267 0.530406 -2 0 -2 
C -0.530406 -2 -1.03916 -1.789267 -1.414214 -1.414214 
C -1.789267 -1.03916 -2 -0.530406 -2 0 
C -2 0.530406 -1.789267 1.03916 -1.414214 1.414214 
C -1.03916 1.789267 -0.530406 2 0 2 
z
" id="C2_0_268cd931ff"/>
    </defs>
    <g clip-path="url(#p46560ced18)">
     <use x="264.229062" xlink:href="#C2_0_268cd931ff" y="216.5931"/>
    </g>
    <g clip-path="url(#p46560ced18)">
     <use x="264.229062" xlink:href="#C2_0_268cd931ff" y="207.5331"/>
    </g>
    <g clip-path="url(#p46560ced18)">
     <use x="260.201208" xlink:href="#C2_0_268cd931ff" y="206.6271"/>
    </g>
    <g clip-path="url(#p46560ced18)">
     <use x="267.068991" xlink:href="#C2_0_268cd931ff" y="205.1775"/>
    </g>
    <g clip-path="url(#p46560ced18)">
     <use x="263.989773" xlink:href="#C2_0_268cd931ff" y="203.0031"/>
    </g>
    <g clip-path="url(#p46560ced18)">
     <use x="264.229062" xlink:href="#C2_0_268cd931ff" y="199.5603"/>
    </g>
    <g clip-path="url(#p46560ced18)">
     <use x="260.945061" xlink:href="#C2_0_268cd931ff" y="197.5671"/>
    </g>
    <g clip-path="url(#p46560ced18)">
     <use x="267.068991" xlink:href="#C2_0_268cd931ff" y="197.2047"/>
    </g>
    <g clip-path="url(#p46560ced18)">
     <use x="271.268991" xlink:href="#C2_0_268cd931ff" y="197.2047"/>
    </g>
    <g clip-path="url(#p46560ced18)">
     <use x="256.8544" xlink:href="#C2_0_268cd931ff" y="196.8423"/>
    </g>
    <g clip-path="url(#p46560ced18)">
     <use x="275.407844" xlink:href="#C2_0_268cd931ff" y="196.6611"/>
    </g>
    <g clip-path="url(#p46560ced18)">
     <use x="264.229062" xlink:href="#C2_0_268cd931ff" y="193.9431"/>
    </g>
    <g clip-path="url(#p46560ced18)">
     <use x="261.389134" xlink:href="#C2_0_268cd931ff" y="191.5875"/>
    </g>
    <g clip-path="url(#p46560ced18)">
     <use x="264.468352" xlink:href="#C2_0_268cd931ff" y="189.4131"/>
    </g>
    <g clip-path="url(#p46560ced18)">
     <use x="268.661602" xlink:href="#C2_0_268cd931ff" y="189.2319"/>
    </g>
    <g clip-path="url(#p46560ced18)">
     <use x="259.177239" xlink:href="#C2_0_268cd931ff" y="188.8695"/>
    </g>
    <g clip-path="url(#p46560ced18)">
     <use x="264.229062" xlink:href="#C2_0_268cd931ff" y="181.9839"/>
    </g>
    <g clip-path="url(#p46560ced18)">
     <use x="260.373693" xlink:href="#C2_0_268cd931ff" y="180.7155"/>
    </g>
    <g clip-path="url(#p46560ced18)">
     <use x="264.229062" xlink:href="#C2_0_268cd931ff" y="178.5411"/>
    </g>
    <g clip-path="url(#p46560ced18)">
     <use x="264.229062" xlink:href="#C2_0_268cd931ff" y="174.7359"/>
    </g>
    <g clip-path="url(#p46560ced18)">
     <use x="260.768653" xlink:href="#C2_0_268cd931ff" y="172.9239"/>
    </g>
    <g clip-path="url(#p46560ced18)">
     <use x="266.440957" xlink:href="#C2_0_268cd931ff" y="172.0179"/>
    </g>
    <g clip-path="url(#p46560ced18)">
     <use x="270.640957" xlink:href="#C2_0_268cd931ff" y="172.0179"/>
    </g>
    <g clip-path="url(#p46560ced18)">
     <use x="264.229062" xlink:href="#C2_0_268cd931ff" y="158.7903"/>
    </g>
    <g clip-path="url(#p46560ced18)">
     <use x="260.373693" xlink:href="#C2_0_268cd931ff" y="157.5219"/>
    </g>
    <g clip-path="url(#p46560ced18)">
     <use x="264.229062" xlink:href="#C2_0_268cd931ff" y="148.6431"/>
    </g>
    <g clip-path="url(#p46560ced18)">
     <use x="262.017168" xlink:href="#C2_0_268cd931ff" y="145.9251"/>
    </g>
    <g clip-path="url(#p46560ced18)">
     <use x="264.229062" xlink:href="#C2_0_268cd931ff" y="137.4087"/>
    </g>
    <g clip-path="url(#p46560ced18)">
     <use x="264.229062" xlink:href="#C2_0_268cd931ff" y="120.1947"/>
    </g>
    <g clip-path="url(#p46560ced18)">
     <use x="264.229062" xlink:href="#C2_0_268cd931ff" y="105.8799"/>
    </g>
    <g clip-path="url(#p46560ced18)">
     <use x="264.229062" xlink:href="#C2_0_268cd931ff" y="99.5379"/>
    </g>
    <g clip-path="url(#p46560ced18)">
     <use x="264.229062" xlink:href="#C2_0_268cd931ff" y="66.0159"/>
    </g>
   </g>
   <g id="PathCollection_4">
    <defs>
     <path d="M 0 2 
C 0.530406 2 1.03916 1.789267 1.414214 1.414214 
C 1.789267 1.03916 2 0.530406 2 0 
C 2 -0.530406 1.789267 -1.03916 1.414214 -1.414214 
C 1.03916 -1.789267 0.530406 -2 0 -2 
C -0.530406 -2 -1.03916 -1.789267 -1.414214 -1.414214 
C -1.789267 -1.03916 -2 -0.530406 -2 0 
C -2 0.530406 -1.789267 1.03916 -1.414214 1.414214 
C -1.03916 1.789267 -0.530406 2 0 2 
z
" id="C3_0_f038153308"/>
    </defs>
    <g clip-path="url(#p46560ced18)">
     <use x="347.929063" xlink:href="#C3_0_f038153308" y="205.9023"/>
    </g>
    <g clip-path="url(#p46560ced18)">
     <use x="347.929063" xlink:href="#C3_0_f038153308" y="193.5807"/>
    </g>
    <g clip-path="url(#p46560ced18)">
     <use x="347.929063" xlink:href="#C3_0_f038153308" y="189.4131"/>
    </g>
    <g clip-path="url(#p46560ced18)">
     <use x="347.929063" xlink:href="#C3_0_f038153308" y="181.8027"/>
    </g>
    <g clip-path="url(#p46560ced18)">
     <use x="347.929063" xlink:href="#C3_0_f038153308" y="165.8571"/>
    </g>
    <g clip-path="url(#p46560ced18)">
     <use x="347.929063" xlink:href="#C3_0_f038153308" y="125.4495"/>
    </g>
   </g>
   <g id="text_13">
    <!-- Muller A -->
    <defs>
     <path d="M 9.8125 72.90625 
L 24.515625 72.90625 
L 43.109375 23.296875 
L 61.8125 72.90625 
L 76.515625 72.90625 
L 76.515625 0 
L 66.890625 0 
L 66.890625 64.015625 
L 48.09375 14.015625 
L 38.1875 14.015625 
L 19.390625 64.015625 
L 19.390625 0 
L 9.8125 0 
z
" id="DejaVuSans-77"/>
     <path d="M 34.1875 63.1875 
L 20.796875 26.90625 
L 47.609375 26.90625 
z
M 28.609375 72.90625 
L 39.796875 72.90625 
L 67.578125 0 
L 57.328125 0 
L 50.6875 18.703125 
L 17.828125 18.703125 
L 11.1875 0 
L 0.78125 0 
z
" id="DejaVuSans-65"/>
    </defs>
    <g transform="translate(197.89625 16.318125)scale(0.12 -0.12)">
     <use xlink:href="#DejaVuSans-77"/>
     <use x="86.279297" xlink:href="#DejaVuSans-117"/>
     <use x="149.658203" xlink:href="#DejaVuSans-108"/>
     <use x="177.441406" xlink:href="#DejaVuSans-108"/>
     <use x="205.224609" xlink:href="#DejaVuSans-101"/>
     <use x="266.748047" xlink:href="#DejaVuSans-114"/>
     <use x="307.861328" xlink:href="#DejaVuSans-32"/>
     <use x="339.648438" xlink:href="#DejaVuSans-65"/>
    </g>
    <!-- Spermatocyte Expression vs Evolutionary Status -->
    <g transform="translate(76.370937 29.7555)scale(0.12 -0.12)">
     <use xlink:href="#DejaVuSans-83"/>
     <use x="63.476562" xlink:href="#DejaVuSans-112"/>
     <use x="126.953125" xlink:href="#DejaVuSans-101"/>
     <use x="188.476562" xlink:href="#DejaVuSans-114"/>
     <use x="229.574219" xlink:href="#DejaVuSans-109"/>
     <use x="326.986328" xlink:href="#DejaVuSans-97"/>
     <use x="388.265625" xlink:href="#DejaVuSans-116"/>
     <use x="427.474609" xlink:href="#DejaVuSans-111"/>
     <use x="488.65625" xlink:href="#DejaVuSans-99"/>
     <use x="543.636719" xlink:href="#DejaVuSans-121"/>
     <use x="602.816406" xlink:href="#DejaVuSans-116"/>
     <use x="642.025391" xlink:href="#DejaVuSans-101"/>
     <use x="703.548828" xlink:href="#DejaVuSans-32"/>
     <use x="735.335938" xlink:href="#DejaVuSans-69"/>
     <use x="798.519531" xlink:href="#DejaVuSans-120"/>
     <use x="857.699219" xlink:href="#DejaVuSans-112"/>
     <use x="921.175781" xlink:href="#DejaVuSans-114"/>
     <use x="962.257812" xlink:href="#DejaVuSans-101"/>
     <use x="1023.78125" xlink:href="#DejaVuSans-115"/>
     <use x="1075.880859" xlink:href="#DejaVuSans-115"/>
     <use x="1127.980469" xlink:href="#DejaVuSans-105"/>
     <use x="1155.763672" xlink:href="#DejaVuSans-111"/>
     <use x="1216.945312" xlink:href="#DejaVuSans-110"/>
     <use x="1280.324219" xlink:href="#DejaVuSans-32"/>
     <use x="1312.111328" xlink:href="#DejaVuSans-118"/>
     <use x="1371.291016" xlink:href="#DejaVuSans-115"/>
     <use x="1423.390625" xlink:href="#DejaVuSans-32"/>
     <use x="1455.177734" xlink:href="#DejaVuSans-69"/>
     <use x="1518.361328" xlink:href="#DejaVuSans-118"/>
     <use x="1577.541016" xlink:href="#DejaVuSans-111"/>
     <use x="1638.722656" xlink:href="#DejaVuSans-108"/>
     <use x="1666.505859" xlink:href="#DejaVuSans-117"/>
     <use x="1729.884766" xlink:href="#DejaVuSans-116"/>
     <use x="1769.09375" xlink:href="#DejaVuSans-105"/>
     <use x="1796.876953" xlink:href="#DejaVuSans-111"/>
     <use x="1858.058594" xlink:href="#DejaVuSans-110"/>
     <use x="1921.4375" xlink:href="#DejaVuSans-97"/>
     <use x="1982.716797" xlink:href="#DejaVuSans-114"/>
     <use x="2023.830078" xlink:href="#DejaVuSans-121"/>
     <use x="2083.009766" xlink:href="#DejaVuSans-32"/>
     <use x="2114.796875" xlink:href="#DejaVuSans-83"/>
     <use x="2178.273438" xlink:href="#DejaVuSans-116"/>
     <use x="2217.482422" xlink:href="#DejaVuSans-97"/>
     <use x="2278.761719" xlink:href="#DejaVuSans-116"/>
     <use x="2317.970703" xlink:href="#DejaVuSans-117"/>
     <use x="2381.349609" xlink:href="#DejaVuSans-115"/>
    </g>
   </g>
  </g>
 </g>
 <defs>
  <clipPath id="p46560ced18">
   <rect height="217.44" width="334.8" x="54.979063" y="35.7555"/>
  </clipPath>
 </defs>
</svg>
